PathFileType	4	(X/Y/Z)	/Users/itak/Documents/Research/Walk-IL/dataset/trc/00078_00006.trc
DataRate	CameraRate	NumFrames	NumMarkers	Units	OrigDataRate	OrigDataStartFrame	OrigNumFrames
100.000000	100.000000	4	53	mm	100.000000	152	611
Frame#	Time	RPSI			LPSI			L3			STRN			T10			C7			CLAV			RBAK			LBAK			LSHO			LUPA			LAEL			LAOL			LWTS			LWPS			LFRA			LIFD			LHPS			LHTS			RSHO			RUPA			RAEL			RAOL			RWTS			RWPS			RFRA			RIFD			RHTS			RHPS			RBHD			LFHD			RFHD			LBHD			LHIP			RHIP			RASI			LASI			LKNE			LTHI			LANK			LTIP			LTOE			LMT1			LMT5			LHEE			RKNE			RTHI			RANK			RTIP			RTOE			RMT1			RMT5			RHEE			
		X1	Y1	Z1	X2	Y2	Z2	X3	Y3	Z3	X4	Y4	Z4	X5	Y5	Z5	X6	Y6	Z6	X7	Y7	Z7	X8	Y8	Z8	X9	Y9	Z9	X10	Y10	Z10	X11	Y11	Z11	X12	Y12	Z12	X13	Y13	Z13	X14	Y14	Z14	X15	Y15	Z15	X16	Y16	Z16	X17	Y17	Z17	X18	Y18	Z18	X19	Y19	Z19	X20	Y20	Z20	X21	Y21	Z21	X22	Y22	Z22	X23	Y23	Z23	X24	Y24	Z24	X25	Y25	Z25	X26	Y26	Z26	X27	Y27	Z27	X28	Y28	Z28	X29	Y29	Z29	X30	Y30	Z30	X31	Y31	Z31	X32	Y32	Z32	X33	Y33	Z33	X34	Y34	Z34	X35	Y35	Z35	X36	Y36	Z36	X37	Y37	Z37	X38	Y38	Z38	X39	Y39	Z39	X40	Y40	Z40	X41	Y41	Z41	X42	Y42	Z42	X43	Y43	Z43	X44	Y44	Z44	X45	Y45	Z45	X46	Y46	Z46	X47	Y47	Z47	X48	Y48	Z48	X49	Y49	Z49	X50	Y50	Z50	X51	Y51	Z51	X52	Y52	Z52	X53	Y53	Z53	

153	1.52	-1317.9951171875	1044.303466796875	514.4428100585938	-1334.204956054688	1040.465576171875	338.6195983886719	-1319.17529296875	1089.181396484375	418.5128784179688	-1070.063842773438	1284.711059570312	416.5589294433594	-1336.456665039062	1221.60107421875	413.8038940429688	-1278.213500976562	1488.815673828125	414.6955261230469	-1098.138793945312	1399.723388671875	416.7597961425781	-1340.413452148438	1348.87255859375	487.6482849121094	-1298.971801757812	1452.494873046875	312.4097290039062	-1194.526000976562	1457.324829101562	240.7312316894531	-1209.153564453125	1330.652099609375	161.9581909179688	-1187.343505859375	1115.763427734375	141.8536071777344	-1252.363159179688	1100.137084960938	225.2154083251953	-1092.511108398438	877.7417602539062	205.2276611328125	-1151.636962890625	865.1553344726562	146.5096893310547	-1165.180419921875	1006.766723632812	134.7069396972656	-1076.475219726562	690.8270874023438	221.9206848144531	-1118.608154296875	786.398193359375	150.1700286865234	-1064.82666015625	797.8573608398438	199.0362396240234	-1214.744018554688	1448.8125	589.7131958007812	-1225.88720703125	1378.40869140625	652.2453002929688	-1251.986206054688	1113.066528320312	676.8121948242188	-1232.759399414062	1091.859375	579.6951904296875	-1107.769897460938	861.2141723632812	636.6672973632812	-1177.457763671875	845.88671875	687.38623046875	-1237.62744140625	1033.052490234375	682.7996215820312	-1100.619873046875	674.3878173828125	619.2637939453125	-1081.95751953125	762.116943359375	636.1917724609375	-1137.408569335938	757.5216064453125	689.3906860351562	-1233.411376953125	1670.794555664062	350.1583862304688	-1075.040771484375	1695.524536132812	494.6961059570312	-1059.095581054688	1702.352661132812	370.3200378417969	-1242.28125	1656.30615234375	487.4442749023438	-1239.959716796875	966.6276245117188	245.3312683105469	-1251.55419921875	970.0567016601562	588.8190307617188	-1127.48779296875	977.107421875	558.8494873046875	-1123.686767578125	969.7777709960938	290.0231628417969	-1219.474243164062	499.5416870117188	287.3551025390625	-1235.942993164062	642.9970092773438	252.5582122802734	-1325.087524414062	52.2168083190918	274.9173278808594	-1284.269287109375	270.7192687988281	265.6322631835938	-1118.015258789062	45.91162109375	265.5128784179688	-1164.26416015625	44.93518447875977	322.0169677734375	-1225.310424804688	44.05301284790039	228.2549285888672	-1372.509765625	50.72151184082031	353.732421875	-1215.5234375	517.634033203125	567.2158813476562	-1185.098022460938	787.7909545898438	595.1317749023438	-1302.172485351562	47.03131484985352	566.4376831054688	-1242.559326171875	401.0867614746094	575.0138549804688	-1083.622802734375	42.54500579833984	536.3574829101562	-1143.125	48.15869903564453	494.6668701171875	-1178.08349609375	49.92571640014648	585.5020751953125	-1347.147827148438	48.13506317138672	507.4973754882812	
154	1.53	-1317.807373046875	1044.334106445312	514.4915771484375	-1333.88037109375	1040.447265625	338.7923583984375	-1318.980712890625	1089.195190429688	418.5700988769531	-1069.831420898438	1284.618530273438	416.6454772949219	-1336.16259765625	1221.626098632812	413.8854675292969	-1277.886474609375	1488.805541992188	414.8080749511719	-1097.861450195312	1399.681884765625	416.8795471191406	-1340.161254882812	1348.885986328125	487.782470703125	-1298.6357421875	1452.480346679688	312.5132751464844	-1194.133911132812	1457.282348632812	240.8669738769531	-1208.882080078125	1330.589233398438	162.0440216064453	-1187.025268554688	1115.719604492188	141.9699401855469	-1252.051635742188	1100.091796875	225.3324584960938	-1092.093994140625	877.7467041015625	205.4262847900391	-1151.266723632812	865.0966796875	146.6855621337891	-1164.87646484375	1006.704650878906	134.823974609375	-1076.06982421875	690.81884765625	222.0982513427734	-1118.214965820312	786.3543090820312	150.3512268066406	-1064.412963867188	797.7730712890625	199.2509460449219	-1214.375366210938	1448.787719726562	589.805908203125	-1225.66455078125	1378.437866210938	652.3404541015625	-1251.745239257812	1113.111694335938	677.049560546875	-1232.622802734375	1091.873657226562	580.0198974609375	-1107.642211914062	861.2178955078125	637.0014038085938	-1177.2763671875	845.908447265625	687.7265625	-1237.47412109375	1033.085327148438	683.0374755859375	-1100.503784179688	674.350341796875	619.6912231445312	-1081.875244140625	762.0250854492188	636.5496826171875	-1137.156860351562	757.502197265625	689.6923217773438	-1233.070190429688	1670.742919921875	350.244140625	-1074.663330078125	1695.463500976562	494.7698974609375	-1058.698120117188	1702.284423828125	370.4071044921875	-1241.9208984375	1656.276611328125	487.5233459472656	-1239.680053710938	966.5850219726562	245.4819488525391	-1251.350952148438	970.025146484375	588.9420776367188	-1127.424560546875	977.0494384765625	558.9241943359375	-1123.416259765625	969.7137451171875	290.1997985839844	-1219.386840820312	499.510986328125	287.4232788085938	-1235.8251953125	642.9808349609375	252.6263275146484	-1325.089477539062	52.21940231323242	274.9226684570312	-1284.229736328125	270.713134765625	265.6624145507812	-1118.025268554688	45.9269905090332	265.4888610839844	-1164.275268554688	44.93588256835938	322.0180053710938	-1225.312377929688	44.05867767333984	228.2655029296875	-1372.543212890625	50.64849853515625	353.6658325195312	-1215.382934570312	517.5780029296875	567.2807006835938	-1185.041870117188	787.7638549804688	595.2352905273438	-1302.173828125	47.02699279785156	566.4397583007812	-1242.348022460938	401.0669250488281	575.09130859375	-1083.640258789062	42.5470085144043	536.3525390625	-1143.1376953125	48.15091323852539	494.6716918945312	-1178.086303710938	49.93412399291992	585.4810180664062	-1347.147216796875	48.12626266479492	507.4990234375	
155	1.54	-1317.635864257812	1044.357299804688	514.5217895507812	-1333.581909179688	1040.428833007812	338.9436645507812	-1318.80078125	1089.20654296875	418.6174011230469	-1069.559326171875	1284.533081054688	416.7450866699219	-1335.8955078125	1221.658935546875	413.9504699707031	-1277.554443359375	1488.796875	414.9263000488281	-1097.60107421875	1399.64697265625	417.0098571777344	-1339.904907226562	1348.89453125	487.9183349609375	-1298.321533203125	1452.46630859375	312.5994873046875	-1193.73876953125	1457.245239257812	241.0084228515625	-1208.598388671875	1330.531982421875	162.1386871337891	-1186.712524414062	1115.675903320312	142.0907135009766	-1251.717163085938	1100.047607421875	225.4790954589844	-1091.72802734375	877.7512817382812	205.6065979003906	-1150.899658203125	865.0386962890625	146.8770294189453	-1164.580932617188	1006.643798828125	134.9517059326172	-1075.684936523438	690.8096923828125	222.2757873535156	-1117.81005859375	786.3081665039062	150.5542449951172	-1064.003540039062	797.66455078125	199.5090026855469	-1214.019409179688	1448.758056640625	589.9013061523438	-1225.421752929688	1378.465087890625	652.4431762695312	-1251.484497070312	1113.134643554688	677.3019409179688	-1232.596923828125	1091.900268554688	580.3331909179688	-1107.494750976562	861.2203369140625	637.336669921875	-1177.097045898438	845.9256591796875	688.0645141601562	-1237.315551757812	1033.106811523438	683.26513671875	-1100.38671875	674.3010864257812	620.1392211914062	-1081.8037109375	761.9549560546875	636.86572265625	-1136.888916015625	757.48681640625	690.0020751953125	-1232.724731445312	1670.687866210938	350.3246459960938	-1074.281616210938	1695.406372070312	494.8603515625	-1058.3115234375	1702.221923828125	370.4856262207031	-1241.56005859375	1656.2490234375	487.5965576171875	-1239.412841796875	966.5429077148438	245.6241607666016	-1251.149291992188	969.9884033203125	589.0670776367188	-1127.375610351562	976.989013671875	559.0034790039062	-1123.152587890625	969.645263671875	290.3790283203125	-1219.310424804688	499.4838256835938	287.4894104003906	-1235.703369140625	642.9633178710938	252.7042388916016	-1325.09033203125	52.22041320800781	274.9285278320312	-1284.187744140625	270.7055358886719	265.6928405761719	-1118.03515625	45.94390869140625	265.4614868164062	-1164.287841796875	44.93821716308594	322.01953125	-1225.3134765625	44.0656852722168	228.2747802734375	-1372.580200195312	50.57001876831055	353.5963745117188	-1215.223876953125	517.5228881835938	567.3426513671875	-1184.981689453125	787.7420043945312	595.35791015625	-1302.179809570312	47.01808166503906	566.4375	-1242.122802734375	401.0424194335938	575.16455078125	-1083.65966796875	42.5506591796875	536.3466796875	-1143.151245117188	48.14267349243164	494.6737670898438	-1178.088012695312	49.94775009155273	585.4526977539062	-1347.146728515625	48.11526107788086	507.5001525878906	
156	1.55	-1317.4765625	1044.37158203125	514.54541015625	-1333.319946289062	1040.411743164062	339.0698547363281	-1318.62890625	1089.215698242188	418.6624450683594	-1069.246704101562	1284.45703125	416.8621826171875	-1335.651733398438	1221.698364257812	414.0014038085938	-1277.218872070312	1488.789306640625	415.0465393066406	-1097.341918945312	1399.617797851562	417.1530456542969	-1339.6435546875	1348.897583007812	488.0558166503906	-1298.025756835938	1452.453979492188	312.6693420410156	-1193.34423828125	1457.215942382812	241.1526336669922	-1208.293579101562	1330.484008789062	162.2445983886719	-1186.40234375	1115.634765625	142.2161254882812	-1251.360107421875	1100.007690429688	225.6522979736328	-1091.41748046875	877.7522583007812	205.7690582275391	-1150.536376953125	864.9844360351562	147.0820465087891	-1164.290405273438	1006.5869140625	135.0905456542969	-1075.329711914062	690.7986450195312	222.4563140869141	-1117.405883789062	786.26220703125	150.7751007080078	-1063.605346679688	797.5409545898438	199.8028717041016	-1213.682495117188	1448.726806640625	589.9996948242188	-1225.150024414062	1378.4931640625	652.5559692382812	-1251.208618164062	1113.13720703125	677.5590209960938	-1232.654663085938	1091.9365234375	580.6216430664062	-1107.335083007812	861.219970703125	637.6730346679688	-1176.92333984375	845.9407958984375	688.3978881835938	-1237.145141601562	1033.119140625	683.4828491210938	-1100.292114257812	674.245849609375	620.6014404296875	-1081.735229492188	761.9133911132812	637.1416625976562	-1136.628051757812	757.4828491210938	690.3277587890625	-1232.371337890625	1670.634887695312	350.4043884277344	-1073.89306640625	1695.352416992188	494.9700622558594	-1057.940551757812	1702.167114257812	370.5560607910156	-1241.195922851562	1656.22900390625	487.6685485839844	-1239.16748046875	966.5031127929688	245.7545013427734	-1250.948486328125	969.9466552734375	589.1963500976562	-1127.328735351562	976.924072265625	559.09130859375	-1122.8994140625	969.57470703125	290.5561218261719	-1219.238647460938	499.4605407714844	287.5549011230469	-1235.572509765625	642.945068359375	252.7938537597656	-1325.089599609375	52.2204704284668	274.9351806640625	-1284.139770507812	270.6967468261719	265.7239074707031	-1118.043090820312	45.96062850952148	265.4327697753906	-1164.2998046875	44.941162109375	322.021728515625	-1225.31396484375	44.07347869873047	228.2820587158203	-1372.61474609375	50.49835586547852	353.5347595214844	-1215.048583984375	517.47021484375	567.4010009765625	-1184.910766601562	787.7252197265625	595.5018310546875	-1302.190063476562	47.006103515625	566.4307861328125	-1241.89208984375	401.013671875	575.23193359375	-1083.678100585938	42.55687713623047	536.3408203125	-1143.1630859375	48.13506317138672	494.672119140625	-1178.087646484375	49.9671630859375	585.4175415039062	-1347.146728515625	48.10280227661133	507.5003051757812	
